<svg id="receipt" xmlns="http://www.w3.org/2000/svg" viewBox="0 0 55.393 72.564">
  <g>
    <g>
      <path d="M103.936,1.877h0a3.346,3.346,0,0,0-3.639.553L95.581,6.605,89.165.866a3.394,3.394,0,0,0-4.529,0L78.225,6.6,71.813.866a3.4,3.4,0,0,0-4.53,0L60.865,6.605,56.144,2.43a3.374,3.374,0,0,0-5.616,2.545V67.589a3.379,3.379,0,0,0,5.624,2.545l4.716-4.176L67.285,71.7a3.394,3.394,0,0,0,4.529,0l6.411-5.735L84.637,71.7a3.4,3.4,0,0,0,4.53,0l6.418-5.739,4.72,4.176a3.374,3.374,0,0,0,5.616-2.545V4.975A3.345,3.345,0,0,0,103.936,1.877ZM97.829,63.413a3.392,3.392,0,0,0-4.513.012L86.9,69.164,80.49,63.431a3.4,3.4,0,0,0-4.53,0l-6.412,5.734L63.13,63.425a3.376,3.376,0,0,0-4.5-.012l-4.7,4.175V58.53L53.91,4.976l4.711,4.175a3.392,3.392,0,0,0,4.513-.012L69.549,3.4,75.96,9.133a3.4,3.4,0,0,0,4.53,0L86.9,3.4l6.419,5.739a3.376,3.376,0,0,0,4.5.012l4.7-4.176V48.017l.017,19.571Z" transform="translate(-50.529)" fill="#f37126"/>
    </g>
  </g>
  <g transform="translate(9.89 34.583)">
    <g>
      <path d="M142.649,203.527H110.435a1.7,1.7,0,1,0,0,3.4h32.214a1.7,1.7,0,1,0,0-3.4Z" transform="translate(-108.736 -203.527)" fill="#f37126"/>
    </g>
  </g>
  <g transform="translate(9.89 24.388)">
    <g>
      <path d="M127.357,143.527H110.435a1.7,1.7,0,1,0,0,3.4h16.921a1.7,1.7,0,0,0,0-3.4Z" transform="translate(-108.736 -143.527)" fill="#f37126"/>
    </g>
  </g>
  <g transform="translate(9.89 44.778)">
    <g>
      <path d="M142.649,263.527H110.435a1.7,1.7,0,0,0,0,3.4h32.214a1.7,1.7,0,1,0,0-3.4Z" transform="translate(-108.736 -263.527)" fill="#f37126"/>
    </g>
  </g>
</svg>
