<svg id="strategy" xmlns="http://www.w3.org/2000/svg" viewBox="0 0 83.482 82.735">
  <g transform="translate(39.022 50.111)">
    <g>
      <path d="M239.171,297.112a9.515,9.515,0,1,0,9.515,9.515A9.528,9.528,0,0,0,239.171,297.112Zm0,16.312a6.8,6.8,0,1,1,6.8-6.8A6.8,6.8,0,0,1,239.171,313.424Z" transform="translate(-229.656 -297.112)" fill="#f37126"/>
    </g>
  </g>
  <g transform="translate(55.334 25.643)">
    <g>
      <path d="M335.171,153.112a9.515,9.515,0,1,0,9.515,9.515A9.528,9.528,0,0,0,335.171,153.112Zm0,16.312a6.8,6.8,0,1,1,6.8-6.8A6.8,6.8,0,0,1,335.171,169.424Z" transform="translate(-325.656 -153.112)" fill="#f37126"/>
    </g>
  </g>
  <g transform="translate(7.758 22.924)">
    <g>
      <path d="M55.171,137.112a9.515,9.515,0,1,0,9.515,9.515A9.528,9.528,0,0,0,55.171,137.112Zm0,16.312a6.8,6.8,0,1,1,6.8-6.8A6.8,6.8,0,0,1,55.171,153.424Z" transform="translate(-45.656 -137.112)" fill="#f37126"/>
    </g>
  </g>
  <g transform="translate(67.967 53.228)">
    <g>
      <path d="M415.515,317.378l-1.922-1.922-5.836,5.836-5.836-5.836L400,317.378l5.836,5.836L400,329.049l1.922,1.922,5.836-5.836,5.836,5.836,1.922-1.922-5.836-5.836Z" transform="translate(-400 -315.456)" fill="#f37126"/>
    </g>
  </g>
  <g transform="translate(0 0.213)">
    <g>
      <path d="M15.515,5.378,13.593,3.456,7.758,9.292,1.922,3.456,0,5.378l5.836,5.836L0,17.049l1.922,1.922,5.836-5.836,5.836,5.836,1.922-1.922L9.68,11.214Z" transform="translate(0 -3.456)" fill="#f37126"/>
    </g>
  </g>
  <g transform="translate(62.529 7.01)">
    <g>
      <path d="M383.515,45.378l-1.922-1.922-5.836,5.836-5.836-5.836L368,45.378l5.836,5.836L368,57.049l1.922,1.922,5.836-5.836,5.836,5.836,1.922-1.922-5.836-5.836Z" transform="translate(-368 -43.456)" fill="#f37126"/>
    </g>
  </g>
  <g id="Group_16" data-name="Group 16" transform="translate(0.961 18.847)">
    <g id="Group_15" data-name="Group 15">
      <path id="Path_12" data-name="Path 12" d="M55.2,117.338l-8.156-4.078a1.359,1.359,0,0,0-1.9.786L42.43,122.2l2.577.86,1.69-5.07c.129.258.247.492.345.674a10.007,10.007,0,0,1,.949,5.455,28.076,28.076,0,0,1-5.307,14.993,24.136,24.136,0,0,1-2.282,2.579c-2.493,2.551-5.679,4.365-9.053,6.284-4.8,2.732-9.729,5.583-12.551,10.717a9.562,9.562,0,1,0,2.333,1.388c2.441-4.512,6.866-7.069,11.563-9.741,3.389-1.929,6.893-3.923,9.654-6.746a26.316,26.316,0,0,0,2.538-2.885,30.822,30.822,0,0,0,5.822-16.464,13.077,13.077,0,0,0-1.2-6.714l4.475,2.237ZM21.968,167.489a6.8,6.8,0,1,1-6.8-6.8A6.8,6.8,0,0,1,21.968,167.489Z" transform="translate(-5.656 -113.116)" fill="#f37126"/>
    </g>
  </g>
  <g transform="translate(30.179)">
    <g>
      <path d="M179.779,2.2l-2.171,1.633c.383.512.884,1.253,1.446,2.145l2.3-1.452C180.744,3.561,180.214,2.778,179.779,2.2Z" transform="translate(-177.608 -2.2)" fill="#f37126"/>
    </g>
  </g>
  <g transform="translate(38.079 14.409)">
    <g>
      <path d="M226.567,87,224.1,88.15c.447.96.794,1.768,1.032,2.4l2.545-.952C227.419,88.9,227.044,88.026,226.567,87Z" transform="translate(-224.104 -87)" fill="#f37126"/>
    </g>
  </g>
  <g transform="translate(33.018 4.688)">
    <g>
      <path d="M196.661,29.792l-2.341,1.381c.438.745.889,1.531,1.34,2.335l2.371-1.331C197.572,31.357,197.109,30.553,196.661,29.792Z" transform="translate(-194.32 -29.792)" fill="#f37126"/>
    </g>
  </g>
  <g transform="translate(35.654 9.488)">
    <g>
      <path d="M212.229,58.04l-2.4,1.279c.431.81.852,1.615,1.247,2.39l2.424-1.232C213.1,59.686,212.672,58.865,212.229,58.04Z" transform="translate(-209.832 -58.04)" fill="#f37126"/>
    </g>
  </g>
</svg>
