<svg id="user" xmlns="http://www.w3.org/2000/svg" viewBox="0 0 86.997 86.997">
  <g>
    <path d="M77.293,73.132l-1.429-.573a43.5,43.5,0,0,0,3.6-53.531,1.361,1.361,0,0,0-.217-.312,43.62,43.62,0,0,0-7.579-8.364,1.374,1.374,0,0,0-1.78,2.093,40.9,40.9,0,0,1,6.217,6.61,60.594,60.594,0,0,1-10.294,2.859,49.074,49.074,0,0,0-3.952-8.888,31.466,31.466,0,0,0-7.13-8.712A40.512,40.512,0,0,1,66.282,9.706,1.374,1.374,0,1,0,67.82,7.43,43.5,43.5,0,0,0,11.151,72.578l-1.411.553A7.8,7.8,0,0,0,4.8,80.7v4.922A1.374,1.374,0,0,0,6.173,87H26.393a1.362,1.362,0,0,0,.195-.015,1.364,1.364,0,0,0,.195.015h5.589a1.374,1.374,0,1,0,0-2.747H28.156V79.466a6.714,6.714,0,0,1,4.125-6.555l.063-.023,6.689-2.62c.014.016.028.032.043.047l3.555,3.463a1.375,1.375,0,0,0,.959.39h.022a1.372,1.372,0,0,0,.967-.42L47.992,70.2l6.68,2.679c.024.01.04.016.065.024a6.715,6.715,0,0,1,4.134,6.558V84.25H36.664a1.374,1.374,0,1,0,0,2.747H80.853a1.382,1.382,0,0,0,1.374-1.383V80.7A7.8,7.8,0,0,0,77.293,73.132Zm-4.156-1.667-1.354-.543v-.782a7.183,7.183,0,0,0,3.193-3.96A3.88,3.88,0,0,0,77.122,59.3V56.862a9.269,9.269,0,0,0-8.085-9.18c.052-.931.088-1.87.105-2.809H84.225A40.558,40.558,0,0,1,73.137,71.466Zm-4.959-3.092H66.925a4.407,4.407,0,0,1-4.4-4.4V60.337h0a14.2,14.2,0,0,0,7.4-2.859,6.179,6.179,0,0,0,2.656,2.545v3.948A4.407,4.407,0,0,1,68.178,68.373Zm.858,2.694v.762l-1.531,1.588-1.438-1.4v-.949a7.188,7.188,0,0,0,.858.053h1.253A7.152,7.152,0,0,0,69.036,71.067ZM61.154,57.679h0c-.047,0-.094,0-.14.007l-.044.007c-.031,0-.062.008-.092.014s-.041.01-.061.016-.047.011-.07.018l-.044.016v-.9a6.517,6.517,0,0,1,6.51-6.51h.657a6.517,6.517,0,0,1,6.509,6.51v.884c-.026-.008-.052-.015-.078-.021l-.038-.011c-1.915-.435-2.541-2.991-2.546-3.011a1.374,1.374,0,0,0-2.453-.5C66.772,57.64,61.227,57.679,61.154,57.679Zm14.173,5.558V61.386a1.134,1.134,0,0,1,0,1.851Zm2.39-41.871a40.68,40.68,0,0,1,6.507,20.758H69.141a69.336,69.336,0,0,0-2.516-17.578A61.3,61.3,0,0,0,77.717,21.367ZM66.394,42.125H52.331a11.211,11.211,0,0,0-7.458-3.668V26.645a123.85,123.85,0,0,0,19.041-1.6A66.411,66.411,0,0,1,66.394,42.125ZM54.277,56.469a1.768,1.768,0,0,1-1.288,1.7v-3.4A1.769,1.769,0,0,1,54.277,56.469Zm-9.4-53.646c5.466.584,10.609,4.64,14.607,11.574a46.07,46.07,0,0,1,3.6,8.006A121.722,121.722,0,0,1,44.872,23.9V2.824ZM44,41.167a8.5,8.5,0,0,1,8.485,8.486v1.679l-.028-.021c-.02-.016-.04-.031-.061-.045l-.049-.032c-.021-.013-.041-.026-.062-.038l-.06-.031-.058-.028c-.024-.011-.049-.02-.074-.029l-.051-.019c-.028-.009-.056-.016-.085-.024l-.038-.011c-2.609-.593-3.436-4-3.443-4.025a1.374,1.374,0,0,0-2.453-.5C42.808,50.975,35.7,51.02,35.608,51.02H35.6c-.047,0-.094,0-.14.007l-.043.007c-.031,0-.063.008-.093.014l-.058.015c-.024.006-.049.012-.073.019s-.044.016-.065.024l-.06.022c-.025.011-.049.023-.073.035l-.047.023c-.025.013-.048.029-.072.043l-.041.025c-.022.015-.043.032-.064.048s-.028.02-.041.031l-.037.033V49.653a8.5,8.5,0,0,1,8.485-8.486H44Zm-23.4.958A66.414,66.414,0,0,1,23.085,25.04a123.982,123.982,0,0,0,19.041,1.6V38.471a11.215,11.215,0,0,0-7.282,3.663,1.406,1.406,0,0,0-.152-.009H20.6ZM34.229,54.756v3.427a1.764,1.764,0,0,1,0-3.427Zm7.9-51.933V23.9a121.794,121.794,0,0,1-18.206-1.5,46.09,46.09,0,0,1,3.6-8C31.516,7.463,36.659,3.407,42.125,2.824Zm-9.873,1.5a31.49,31.49,0,0,0-7.115,8.7,49.072,49.072,0,0,0-3.95,8.885A60.721,60.721,0,0,1,10.91,19.06,40.887,40.887,0,0,1,32.252,4.326ZM9.293,21.373a61.427,61.427,0,0,0,11.081,3.171,69.328,69.328,0,0,0-2.517,17.581H2.773A40.5,40.5,0,0,1,9.293,21.373Zm8.851,49.694a7.188,7.188,0,0,0,.858.053h1.253a7.147,7.147,0,0,0,.858-.053v.761l-1.53,1.588-1.438-1.4v-.949Zm2.111-2.694H19a4.407,4.407,0,0,1-4.4-4.4V60.339A14.2,14.2,0,0,0,22,57.478a6.18,6.18,0,0,0,2.656,2.546v3.948A4.407,4.407,0,0,1,20.255,68.373ZM23.79,54.7a1.374,1.374,0,0,0-2.453-.5c-2.489,3.441-8.039,3.478-8.106,3.478h0c-.047,0-.094,0-.14.007l-.043.007c-.031,0-.063.008-.093.014l-.058.015c-.024.006-.049.012-.073.019l-.043.016v-.9a6.517,6.517,0,0,1,6.51-6.51h.657a6.517,6.517,0,0,1,6.509,6.51v.884h0c-.026-.009-.054-.015-.081-.022l-.036-.01C24.421,57.278,23.794,54.722,23.79,54.7ZM2.773,44.872H17.856c.017.946.054,1.891.106,2.828a9.27,9.27,0,0,0-7.933,9.161v2.431A3.879,3.879,0,0,0,12.2,66.183,7.181,7.181,0,0,0,15.4,70.141v.774l-1.5.588A40.541,40.541,0,0,1,2.773,44.872Zm9.08,16.483v1.912a1.135,1.135,0,0,1,0-1.912ZM25.408,79.466V84.25H7.547V80.7a5.108,5.108,0,0,1,3.11-4.981l.063-.023L15.9,73.668l2.753,2.681a1.373,1.373,0,0,0,.958.39h.022a1.371,1.371,0,0,0,.967-.42l2.6-2.7,3.214,1.289A10.259,10.259,0,0,0,25.408,79.466Zm13.253-12L31.37,70.318a8.758,8.758,0,0,0-3.353,2.272L23.86,70.923v-.781a7.182,7.182,0,0,0,3.193-3.96A3.88,3.88,0,0,0,29.2,59.3V56.862a9.268,9.268,0,0,0-8.49-9.223c-.052-.916-.089-1.841-.106-2.766H33.018a11.162,11.162,0,0,0-1.071,4.781v3.205a4.512,4.512,0,0,0,2.636,8.123,8.634,8.634,0,0,0,4.078,5.08v1.4ZM27.4,63.238V61.386a1.134,1.134,0,0,1,0,1.852ZM45.81,68.422v.088l-2.251,2.336-2.151-2.095V67.023a8.6,8.6,0,0,0,1.417.119h1.567a8.638,8.638,0,0,0,1.417-.119Zm-1.417-4.027H42.826a5.856,5.856,0,0,1-5.849-5.849V53.7c2.192-.2,6.527-.964,9.694-3.806a7.488,7.488,0,0,0,3.572,3.495v5.162A5.856,5.856,0,0,1,44.393,64.394Zm14.625,8.2a8.765,8.765,0,0,0-3.357-2.279l-7.1-2.849V66.062a8.633,8.633,0,0,0,4.078-5.082,4.511,4.511,0,0,0,2.6-8.107v-3.22a11.16,11.16,0,0,0-1.071-4.781H66.394c-.018.929-.054,1.858-.107,2.778a9.27,9.27,0,0,0-8.336,9.211v2.431a3.879,3.879,0,0,0,2.177,6.891,7.181,7.181,0,0,0,3.192,3.958v.774Zm.758-11.243v1.912a1.135,1.135,0,0,1,0-1.912ZM79.48,84.25H61.619V79.466a10.258,10.258,0,0,0-1-4.543l3.207-1.256,2.753,2.681a1.374,1.374,0,0,0,.959.39h.022a1.372,1.372,0,0,0,.967-.42l2.6-2.7,5.17,2.073.063.023A5.109,5.109,0,0,1,79.48,80.7v3.55Z" fill="#f37126"/>
  </g>
</svg>
